<svg data-name="Layer 1" xmlns="http://www.w3.org/2000/svg" viewBox="0 0 50 50"><path d="M3.6 16.292C16.23-10.749 60.815 8.9 46.031 36.877c-5.474 9.731-24.842 11.415-34.573 8.323C-.332 41.462-.893 25.929 3.6 16.292z" fill="#213a6a" fill-rule="evenodd"/><path d="M22.64 13.5a3.857 3.857 0 011.87-.478 4.25 4.25 0 011.965.514l8 5.24.086.058a2.2 2.2 0 01.522 3.03 2.258 2.258 0 01-3.083.65L24.463 17.6l-7.251 4.351v11.142a2.2 2.2 0 01-4.4-.1V21.447a3.854 3.854 0 011.873-3.147l7.815-4.722z" fill="#fff"/><path d="M37.142 27.894a2.113 2.113 0 011.59.515 2.368 2.368 0 01.8 1.5 2.2 2.2 0 01-.443 1.5l-.139.167a10.285 10.285 0 01-7.465 3.1A10.5 10.5 0 0124.1 31.7l-.15-.157a2.444 2.444 0 01-.562-1.591 2.21 2.21 0 01.749-1.5 2.176 2.176 0 011.45-.561 2.246 2.246 0 011.684.748 6 6 0 004.206 1.633 5.873 5.873 0 004.12-1.592l.12-.128a2.2 2.2 0 011.425-.658z" fill="#fff"/></svg>